# xmcd
#
# Track frame offsets: 
#        150
#        18455
#        33050
#        53135
#        70570
#        89486
#        103735
#        126399
#        147601
#        162099
#        175902
#        193829
#        221542
#
# Disc length: 3250 seconds
#
# Revision: 0
# Processed by: cddbd v1.5.2PL0 Copyright (c) Steve Scherf et al.
# Submitted via: ExactAudioCopy v1.1
#
DISCID=b90cb00d
DTITLE=Ellis Kell Band - Ellis Kell and Friends
DYEAR=2000
DGENRE=
TTITLE0=Ain't Got No Blues Today
TTITLE1=Lucky Dog
TTITLE2=Tilta Whirl
TTITLE3=What Can We Do Now
TTITLE4=Muddy Tears on Maxwell Street
TTITLE5=A Charles Towne Aire
TTITLE6=Road Song
TTITLE7=Sticks 'n Stones
TTITLE8=What's On Your Mind
TTITLE9=Have You Ever Needed Love
TTITLE10=This House
TTITLE11=Country Blues
TTITLE12=Irish Digger
EXTD=
EXTT0=
EXTT1=
EXTT2=
EXTT3=
EXTT4=
EXTT5=
EXTT6=
EXTT7=
EXTT8=
EXTT9=
EXTT10=
EXTT11=
EXTT12=
PLAYORDER=
